<svg xmlns="http://www.w3.org/2000/svg" id="Layer_2" data-name="Layer 2" viewBox="0 0 931.88 469.76"><defs fill="#ffffff"><style>.cls-1{fill:#ffffff;}</style></defs><path class="cls-1" d="M104.27,608.3S-26.61,521.75,69,411.7,412,256.77,589.36,266.39s267.11,58.76,333.36,99.36c0,0-143.18-95.09-402.81-74.79C255.28,302-42.1,447,104.27,608.3Z" transform="translate(-34.06 -265.12)" fill="#ffffff"/><path class="cls-1" d="M144.88,475.09s-32.06-76.21,190.89-133.2c0,0,319.83-89.75,527.11,24.22,0,0-134.62-69.81-413.85-28.49S152,455.15,144.88,475.09Z" transform="translate(-34.06 -265.12)" fill="#ffffff"/><path d="M895.73,391.7S1026.61,478.25,931,588.3,588,743.23,410.64,733.61,143.53,674.85,77.28,634.25c0,0,143.18,95.09,402.81,74.79C744.72,698,1042.1,553,895.73,391.7Z" transform="translate(-34.06 -265.12)" fill="#ffffff"/><path class="cls-1" d="M855.12,524.91s32.06,76.21-190.89,133.2c0,0-319.83,89.75-527.11-24.22,0,0,134.62,69.81,413.85,28.49S848,544.85,855.12,524.91Z" transform="translate(-34.06 -265.12)" fill="#ffffff"/><path d="M236.82,496.07l1.78-1.79a5.73,5.73,0,0,0,1.43.18c4.65.9,4.83.9,6.25.9,11.26,0,18.4-9.29,18.4-23.58,0-15.9-7.5-23.94-22.33-23.94-4.82,0-8,.54-10.71,1.61v87c0,15.72.35,16.43,8.57,17l8.4.54v7.14c-23.94-.53-23.94-.53-29.48-.53-6.25,0-6.25,0-27.86.53V554l6.61-.54c8.39-.71,8.57-1.07,8.57-17V463.56c0-15.72-.54-16.79-8.57-17.51l-6.61-.53v-6.61c27.15.53,27.15.53,30.9.53,2,0,12.86-.17,32.33-.53h2.15q33.75,0,33.76,26.79c0,21.62-17.15,37.87-40.2,37.87a53,53,0,0,1-7.68-.71l-1.25-.36-1.43-.18Z" transform="translate(-34.06 -265.12)" fill="#ffffff"/><path d="M319.15,523.76l-7.5,20a14.35,14.35,0,0,0-.89,4.47,5.54,5.54,0,0,0,5.18,5.72l8.93.53v6.61c-4.64-.18-8.75-.18-10.18-.36-5-.17-8.4-.17-10-.17s-5,0-10,.17c-1.43.18-5.54.18-10.18.36v-6.61l5.36-.53c3.93-.36,7-3.76,10-10.72L332.19,465c.9-2,2.68-6.61,5.18-13.58.54-1.78,2.68-7.32,5-13.39h12.68l46.26,108.07c2.33,5.18,4.83,7.14,9.83,7.86l4.29.53v6.61c-26.26-.53-26.26-.53-28.23-.53-2.14,0-2.14,0-27.15.53v-6.61l9.47-.53c2-.18,3.57-2.15,3.57-4.83a14.12,14.12,0,0,0-1.07-5l-8-20.36Zm4.29-10h36.44L341.3,468.38Z" transform="translate(-34.06 -265.12)" fill="#ffffff"/><path d="M531,553.77c-13.22,7.32-23.76,9.82-40.2,9.82-44.12,0-71.63-25-71.63-65,0-38.23,28.23-62.16,73.42-62.16,15.54,0,25.55,2,41.8,8.39l1.07,2c-1.61,6.79-2.14,10.18-4.11,27.33h-7l-.9-15.36c-9.64-8.93-18.4-12.33-31.79-12.33-28.23,0-45.73,18.94-45.73,49.66,0,33.76,20.72,55.91,52,55.91q17.42,0,34.83-9.11l2.15,2.14Z" transform="translate(-34.06 -265.12)" fill="#ffffff"/><path d="M656.38,545.91c4.29,5.71,6.07,6.79,12.5,8v7.14c-6.43-.36-8.21-.36-17.33-.53l-16.07.53-40-62,1.25-3.22c7.85.18,12.32-.71,16.79-3.39,7.32-4.29,11.79-12.33,11.79-21.79,0-14.47-9.11-22.87-25-22.87-4.65,0-8,.54-10.54,1.61v87c0,15.9.18,16.26,8.57,17l6.61.54v7.14c-21.61-.53-21.79-.53-27.86-.53s-6.08,0-27.69.53V554l6.61-.54c8.39-.71,8.57-1.07,8.57-17V463.56c0-15.72-.53-16.79-8.57-17.51l-6.61-.53v-6.61c26.79.53,26.79.53,31.79.53,3.93,0,18.58-.17,23.23-.35,6.07-.18,10.36-.18,12.32-.18,22.51,0,33.94,8.93,33.94,26.26A27.83,27.83,0,0,1,643,484.82c-4.64,5.36-8.93,8-18.93,12.14Z" transform="translate(-34.06 -265.12)" fill="#ffffff"/><path d="M712.45,523.76l-7.5,20a14.35,14.35,0,0,0-.89,4.47,5.54,5.54,0,0,0,5.18,5.72l8.93.53v6.61c-4.65-.18-8.75-.18-10.18-.36-5-.17-8.4-.17-10-.17s-5,0-10,.17c-1.43.18-5.54.18-10.18.36v-6.61l5.36-.53c3.93-.36,7-3.76,10-10.72L725.49,465c.9-2,2.68-6.61,5.18-13.58.54-1.78,2.68-7.32,5-13.39h12.68l46.26,108.07c2.33,5.18,4.82,7.14,9.83,7.86l4.28.53v6.61c-26.26-.53-26.26-.53-28.22-.53-2.14,0-2.14,0-27.15.53v-6.61l9.47-.53c2-.18,3.57-2.15,3.57-4.83a14.12,14.12,0,0,0-1.07-5l-8-20.36Zm4.29-10h36.44L734.6,468.38Z" transform="translate(-34.06 -265.12)" fill="#ffffff"/></svg>